<?xml version="1.0" encoding="UTF-8" standalone="no"?>
<svg
   width="271.84698"
   height="51.200985"
   viewBox="0 0 271.84699 51.200985"
   version="1.1"
   id="svg1"
   sodipodi:docname="xperts-2024-2-lines.svg"
   inkscape:version="1.3.2 (091e20e, 2023-11-25)"
   xmlns:inkscape="http://www.inkscape.org/namespaces/inkscape"
   xmlns:sodipodi="http://sodipodi.sourceforge.net/DTD/sodipodi-0.dtd"
   xmlns="http://www.w3.org/2000/svg"
   xmlns:svg="http://www.w3.org/2000/svg">
  <sodipodi:namedview
     id="namedview1"
     pagecolor="#ffffff"
     bordercolor="#666666"
     borderopacity="1.0"
     inkscape:showpageshadow="2"
     inkscape:pageopacity="0.0"
     inkscape:pagecheckerboard="0"
     inkscape:deskcolor="#d1d1d1"
     inkscape:zoom="1.895092"
     inkscape:cx="178.6193"
     inkscape:cy="56.197799"
     inkscape:window-width="1656"
     inkscape:window-height="876"
     inkscape:window-x="0"
     inkscape:window-y="25"
     inkscape:window-maximized="0"
     inkscape:current-layer="svg1" />
  <defs
     id="defs1">
    <inkscape:path-effect
       effect="powermask"
       id="path-effect16"
       is_visible="true"
       lpeversion="1"
       uri="#mask-powermask-path-effect16"
       invert="false"
       hide_mask="false"
       background="true"
       background_color="#ffffffff" />
    <clipPath
       id="clip-path">
      <rect
         id="Rectangle_2"
         data-name="Rectangle 2"
         width="106.08"
         height="20"
         fill="none"
         x="0"
         y="0" />
    </clipPath>
  </defs>
  <g
     id="g2"
     transform="translate(47.3575,-6.9994609)"
     style="fill:#ffffff;fill-opacity:0.50442475">
    <g
       id="fortinet-logo-white"
       transform="translate(0,7)"
       style="fill:#ffffff;fill-opacity:0.50442475">
      <path
         id="Path_18"
         data-name="Path 18"
         d="m 236.641,22.594 h 0.588 a 0.442,0.442 0 0 1 0.294,0.074 0.562,0.562 0 0 1 0.147,0.368 c 0,0.147 -0.074,0.221 -0.147,0.368 a 0.557,0.557 0 0 1 -0.294,0.147 h -0.588 z m 1.1,1.176 a 0.574,0.574 0 0 0 0.294,-0.294 0.486,0.486 0 0 0 0.074,-0.441 0.933,0.933 0 0 0 -0.074,-0.441 c -0.074,-0.074 -0.147,-0.221 -0.294,-0.221 a 0.551,0.551 0 0 0 -0.368,-0.074 H 236.2 v 2.426 h 0.441 v -0.882 h 0.662 l 0.441,0.882 h 0.441 l -0.441,-0.956 v 0"
         transform="translate(-62.524,-5.903)"
         fill="#fff"
         style="fill:#ffffff;fill-opacity:0.50442475" />
      <path
         id="Path_19"
         data-name="Path 19"
         d="m 238.334,24.172 a 1.772,1.772 0 0 1 -0.735,0.735 1.925,1.925 0 0 1 -1.985,0 1.772,1.772 0 0 1 -0.735,-0.735 2.393,2.393 0 0 1 -0.294,-1.029 1.688,1.688 0 0 1 0.294,-1.029 1.772,1.772 0 0 1 0.735,-0.735 1.925,1.925 0 0 1 1.985,0 1.772,1.772 0 0 1 0.735,0.735 2.394,2.394 0 0 1 0.294,1.029 2.727,2.727 0 0 1 -0.294,1.029 m 0.441,-1.985 a 2.1,2.1 0 0 0 -1.25,-1.25 1.266,1.266 0 0 0 -0.882,-0.147 2.329,2.329 0 0 0 -1.691,0.662 2.641,2.641 0 0 0 -0.515,0.735 1.266,1.266 0 0 0 -0.147,0.882 2.265,2.265 0 0 0 2.353,2.353 3.16,3.16 0 0 0 0.882,-0.147 2.1,2.1 0 0 0 1.25,-1.25 1.266,1.266 0 0 0 0.147,-0.882 1.4,1.4 0 0 0 -0.147,-0.956"
         transform="translate(-62.01,-5.496)"
         fill="#fff"
         style="fill:#ffffff;fill-opacity:0.50442475" />
      <path
         id="Path_20"
         data-name="Path 20"
         d="m 138.2,19.926 h 4.853 V 0 H 138.2 Z"
         transform="translate(-36.582)"
         fill="#fff"
         style="fill:#ffffff;fill-opacity:0.50442475" />
      <path
         id="Path_21"
         data-name="Path 21"
         d="m 109,4.265 h 5.074 V 19.926 H 119 V 4.265 h 8.824 V 0 H 109 Z"
         transform="translate(-28.853)"
         fill="#fff"
         style="fill:#ffffff;fill-opacity:0.50442475" />
      <path
         id="Path_22"
         data-name="Path 22"
         d="m 215.4,0 v 4.265 h 5.074 V 19.926 H 225.4 V 4.265 h 8.75 V 0 Z"
         transform="translate(-57.018)"
         fill="#fff"
         style="fill:#ffffff;fill-opacity:0.50442475" />
      <path
         id="Path_23"
         data-name="Path 23"
         d="m 0,19.926 h 4.853 v -7.352 h 13.9 V 8.309 H 4.853 V 4.265 H 21.1 V 0 H 0 Z"
         fill="#fff"
         style="fill:#ffffff;fill-opacity:0.50442475" />
      <path
         id="Path_24"
         data-name="Path 24"
         d="m 185,19.926 h 19.926 v -4.264 h -15.073 v -3.53 h 12.132 V 7.794 H 189.853 V 4.265 h 14.779 V 0 H 185 Z"
         transform="translate(-48.971)"
         fill="#fff"
         style="fill:#ffffff;fill-opacity:0.50442475" />
      <path
         id="Path_25"
         data-name="Path 25"
         d="m 166.3,0 h -16.4 v 19.926 h 4.853 V 4.265 h 10.956 a 1.318,1.318 0 0 1 1.324,1.324 v 14.337 h 4.853 V 5.662 A 5.511,5.511 0 0 0 166.3,0 v 0"
         transform="translate(-39.679)"
         fill="#fff"
         style="fill:#ffffff;fill-opacity:0.50442475" />
      <path
         id="Path_26"
         data-name="Path 26"
         d="m 93.232,7.206 a 1.131,1.131 0 0 1 -1.1,1.1 H 80.953 V 4.265 h 11.176 a 1.131,1.131 0 0 1 1.1,1.1 z M 92.791,0 H 76.1 v 20 h 4.853 v -7.353 h 10.956 a 1.068,1.068 0 0 1 1.029,1.1 V 20 h 4.853 v -6.324 a 2.937,2.937 0 0 0 -1.471,-2.5 5.332,5.332 0 0 0 1.691,-3.971 V 5.368 A 5.227,5.227 0 0 0 92.791,0 v 0"
         transform="translate(-20.144)"
         fill="#fff"
         style="fill:#ffffff;fill-opacity:0.50442475" />
      <path
         id="Path_27"
         data-name="Path 27"
         d="M 68.088,10 H 60 v 5.221 h 8.088 z"
         transform="translate(-15.882,-2.647)"
         fill="#fff"
         style="fill:#ffffff;fill-opacity:0.50442475" />
      <path
         id="Path_28"
         data-name="Path 28"
         d="m 46.1,25.247 h 8.015 V 20.1 H 46.1 Z"
         transform="translate(-12.203,-5.321)"
         fill="#fff"
         style="fill:#ffffff;fill-opacity:0.50442475" />
      <path
         id="Path_29"
         data-name="Path 29"
         d="M 68.088,4.338 A 4.3,4.3 0 0 0 63.75,0 H 60 v 5.147 h 8.088 z"
         transform="translate(-15.882)"
         fill="#fff"
         style="fill:#ffffff;fill-opacity:0.50442475" />
      <path
         id="Path_30"
         data-name="Path 30"
         d="m 46.1,0 v 5.147 h 8.015 V 0 Z"
         transform="translate(-12.203)"
         fill="#fff"
         style="fill:#ffffff;fill-opacity:0.50442475" />
      <path
         id="Path_31"
         data-name="Path 31"
         d="m 32.1,10 v 0 5.221 h 8.088 V 10 Z"
         transform="translate(-8.497,-2.647)"
         fill="#fff"
         style="fill:#ffffff;fill-opacity:0.50442475" />
      <path
         id="Path_32"
         data-name="Path 32"
         d="m 60,25.247 h 3.75 a 4.3,4.3 0 0 0 4.338,-4.338 V 20.1 H 60 Z"
         transform="translate(-15.882,-5.321)"
         fill="#fff"
         style="fill:#ffffff;fill-opacity:0.50442475" />
      <path
         id="Path_33"
         data-name="Path 33"
         d="m 32.1,20.909 a 4.3,4.3 0 0 0 4.338,4.338 h 3.75 V 20.1 H 32.1 Z"
         transform="translate(-8.497,-5.321)"
         fill="#fff"
         style="fill:#ffffff;fill-opacity:0.50442475" />
      <path
         id="Path_34"
         data-name="Path 34"
         d="m 32.1,4.338 v 0.809 h 8.015 V 0 H 36.438 A 4.395,4.395 0 0 0 32.1,4.338"
         transform="translate(-8.497)"
         fill="#fff"
         style="fill:#ffffff;fill-opacity:0.50442475" />
    </g>
  </g>
  <g
     id="Group_5"
     data-name="Group 5"
     transform="translate(0,31.200984)"
     style="fill:#ffffff;fill-opacity:0.504425">
    <g
       id="Group_4"
       data-name="Group 4"
       clip-path="url(#clip-path)"
       style="fill:#ffffff;fill-opacity:0.504425">
      <path
         id="Path_35"
         data-name="Path 35"
         d="m 66.658,0.84 h 8.419 c 4.333,0 7.238,2.743 7.238,6.9 0,4.2 -2.981,6.819 -7.428,6.819 h -2.934 v 5.79 h -5.295 z m 7.162,9.6 c 1.857,0 2.972,-1.038 2.972,-2.7 0,-1.662 -1.115,-2.671 -2.972,-2.671 h -1.867 v 5.371 z"
         transform="translate(-45.503,-0.574)"
         fill="#fff"
         style="fill:#ffffff;fill-opacity:0.504425" />
      <path
         id="Path_36"
         data-name="Path 36"
         d="M 122.145,0.84 H 136.2 v 4.267 h -8.76 v 3.352 h 8.038 v 4.267 h -8.038 v 3.352 h 8.724 v 4.267 h -14.019 z"
         transform="translate(-83.38,-0.574)"
         fill="#fff"
         style="fill:#ffffff;fill-opacity:0.504425" />
      <path
         id="Path_37"
         data-name="Path 37"
         d="m 174.335,0.841 h 8.419 c 4.334,0 7.238,2.476 7.238,6.629 a 5.8,5.8 0 0 1 -3.314,5.6 l 3.962,7.276 h -5.752 l -3.428,-6.438 h -1.83 v 6.438 h -5.295 z m 7.165,8.952 c 1.858,0 2.972,-0.657 2.972,-2.324 0,-1.667 -1.114,-2.4 -2.972,-2.4 h -1.87 v 4.724 z"
         transform="translate(-119.006,-0.574)"
         fill="#fff"
         style="fill:#ffffff;fill-opacity:0.504425" />
      <path
         id="Path_38"
         data-name="Path 38"
         d="m 227.468,0.84 h 16.953 v 4.267 h -5.867 v 15.238 h -5.219 V 5.107 h -5.867 z"
         transform="translate(-155.277,-0.574)"
         fill="#fff"
         style="fill:#ffffff;fill-opacity:0.504425" />
      <path
         id="Path_39"
         data-name="Path 39"
         d="m 291.132,4.343 c -1.638,0 -2.352,0.629 -2.362,1.486 -0.047,0.933 0.781,1.476 2.629,1.866 l 1.6,0.343 c 4.3,0.924 6.076,3.01 6.1,5.981 -0.024,3.848 -2.986,5.981 -7.929,5.981 -5.086,0 -8.4,-2.19 -8.419,-7.086 h 5.028 c 0.086,1.79 1.286,2.743 3.314,2.743 1.7,0 2.571,-0.676 2.59,-1.638 -0.019,-0.886 -0.762,-1.428 -2.933,-1.9 L 288.807,11.7 C 285.35,10.957 283.236,9.262 283.245,6.214 283.218,2.5 286.494,0 291.132,0 c 4.724,0 7.676,2.533 7.7,6.362 h -5.072 c -0.1,-1.267 -0.914,-2.019 -2.628,-2.019"
         transform="translate(-193.014)"
         fill="#fff"
         style="fill:#ffffff;fill-opacity:0.504425" />
      <path
         id="Path_40"
         data-name="Path 40"
         d="m 38.035,37.771 -3,4.33 2.365,3.423 h 6.011 z"
         transform="translate(-23.913,-25.783)"
         fill="#fff"
         style="fill:#ffffff;fill-opacity:0.504425" />
      <path
         id="Path_41"
         data-name="Path 41"
         d="m 38.035,8.594 -3,-4.33 L 37.4,0.84 h 6.011 z"
         transform="translate(-23.913,-0.574)"
         fill="#fff"
         style="fill:#ffffff;fill-opacity:0.504425" />
      <path
         id="Path_42"
         data-name="Path 42"
         d="M 12.749,10.578 5.993,0.841 H 0 l 6.747,9.738 z"
         transform="translate(0,-0.574)"
         fill="#fff"
         style="fill:#ffffff;fill-opacity:0.504425" />
      <path
         id="Path_43"
         data-name="Path 43"
         d="M 12.749,31.523 5.993,41.259 H 0 l 6.747,-9.737 z"
         transform="translate(0,-21.519)"
         fill="#fff"
         opacity="0.75"
         style="fill:#ffffff;fill-opacity:0.504425" />
    </g>
  </g>
  <path
     id="rect4"
     mask="none"
     style="fill:#ffffff;fill-opacity:0.5;stroke-width:3.98281;stroke-opacity:0.835821"
     d="M 119.40011 71.080555 L 119.40011 91.080555 L 274.24776 91.080555 L 274.24776 71.080555 L 119.40011 71.080555 z M 132.68136 76.228992 C 133.87963 76.228992 134.79083 76.453114 135.41769 76.900867 C 136.04881 77.344357 136.42524 78.05165 136.54464 79.023914 L 133.81222 79.18407 C 133.73972 78.761903 133.58582 78.45409 133.35128 78.262195 C 133.12101 78.070301 132.80167 77.975086 132.3923 77.975086 C 132.05541 77.975086 131.80115 78.046896 131.63058 78.191883 C 131.46 78.332606 131.37472 78.506727 131.37472 78.711414 C 131.37472 78.860665 131.44493 78.994357 131.58566 79.113758 C 131.72211 79.237423 132.04659 79.352853 132.55831 79.459461 C 133.82481 79.732378 134.73123 80.008094 135.27706 80.289539 C 135.82716 80.56672 136.227 80.91301 136.47433 81.326649 C 136.72592 81.740288 136.85128 82.203602 136.85128 82.71532 C 136.85128 83.316589 136.6839 83.869976 136.35128 84.37743 C 136.01866 84.884884 135.55375 85.271245 134.95675 85.535633 C 134.35974 85.795756 133.60724 85.926258 132.69894 85.926258 C 131.10408 85.926258 130.0005 85.618445 129.38644 85.004383 C 128.77237 84.390321 128.42449 83.609265 128.34347 82.662586 L 131.10128 82.490711 C 131.16098 82.938465 131.2812 83.279611 131.46456 83.514149 C 131.76306 83.893673 132.1895 84.084461 132.74386 84.084461 C 133.1575 84.084461 133.47524 83.987293 133.69698 83.795399 C 133.92299 83.59924 134.03683 83.373523 134.03683 83.117664 C 134.03683 82.874598 133.92973 82.657215 133.71651 82.46532 C 133.5033 82.273426 133.00825 82.092925 132.23214 81.922352 C 130.96137 81.636642 130.05496 81.257019 129.51339 80.78368 C 128.96756 80.31034 128.69503 79.706596 128.69503 78.973133 C 128.69503 78.491265 128.83387 78.036284 129.11105 77.609852 C 129.39249 77.179156 129.81219 76.843152 130.37081 76.600086 C 130.9337 76.352756 131.70483 76.228992 132.68136 76.228992 z M 222.22628 76.228992 C 223.14311 76.228992 223.85554 76.332541 224.363 76.541492 C 224.87472 76.750444 225.2742 77.073329 225.56417 77.508289 C 225.85841 77.938985 226.00558 78.422157 226.00558 78.959461 C 226.00558 79.53088 225.83855 80.077886 225.50167 80.598133 C 225.16905 81.11838 224.56017 81.688433 223.67745 82.311024 C 223.15294 82.673491 222.80187 82.927756 222.62276 83.072742 C 222.44793 83.217729 222.24047 83.408517 222.00167 83.643055 L 226.07003 83.643055 L 226.07003 85.766102 L 218.25362 85.766102 C 218.34317 84.99426 218.61411 84.268347 219.06612 83.59032 C 219.52241 82.908029 220.37527 82.105521 221.62472 81.180164 C 222.38803 80.61301 222.87635 80.181433 223.08956 79.887195 C 223.30278 79.592958 223.40987 79.313693 223.40987 79.049305 C 223.40987 78.763596 223.30278 78.521212 223.08956 78.320789 C 222.88061 78.116102 222.61642 78.014149 222.29659 78.014149 C 221.96398 78.014149 221.69145 78.117697 221.47823 78.326649 C 221.26928 78.5356 221.1269 78.905295 221.05441 79.43407 L 218.44503 79.223133 C 218.54737 78.48967 218.73461 77.917664 219.00753 77.508289 C 219.28045 77.09465 219.66521 76.778504 220.15987 76.561024 C 220.6588 76.339279 221.34783 76.228992 222.22628 76.228992 z M 235.31808 76.228992 C 235.9492 76.228992 236.46765 76.307541 236.87276 76.46532 C 237.27787 76.618836 237.60909 76.821148 237.86495 77.072742 C 238.12081 77.320073 238.32153 77.582671 238.46651 77.859852 C 238.61577 78.132768 238.73439 78.452105 238.82394 78.818836 C 238.99877 79.518184 239.08566 80.247287 239.08566 81.006336 C 239.08566 82.707799 238.79806 83.953765 238.22237 84.742664 C 237.64669 85.531563 236.65499 85.926258 235.24776 85.926258 C 234.45887 85.926258 233.82179 85.798947 233.33566 85.547352 C 232.84952 85.295757 232.45164 84.928015 232.14034 84.441883 C 231.91433 84.096473 231.73702 83.624825 231.60909 83.02782 C 231.48543 82.426552 231.42355 81.764473 231.42355 81.039539 C 231.42355 79.257054 231.74288 78.009493 232.38253 77.297352 C 233.02644 76.585211 234.00467 76.228992 235.31808 76.228992 z M 248.18136 76.228992 C 249.09819 76.228992 249.81062 76.332541 250.31808 76.541492 C 250.8298 76.750444 251.22928 77.073329 251.51925 77.508289 C 251.81349 77.938985 251.96066 78.422157 251.96066 78.959461 C 251.96066 79.53088 251.79363 80.077886 251.45675 80.598133 C 251.12413 81.11838 250.51524 81.688433 249.63253 82.311024 C 249.10802 82.673491 248.75694 82.927756 248.57784 83.072742 C 248.40301 83.217729 248.19555 83.408517 247.95675 83.643055 L 252.02511 83.643055 L 252.02511 85.766102 L 244.2087 85.766102 C 244.29825 84.99426 244.56918 84.268347 245.0212 83.59032 C 245.47748 82.908029 246.33035 82.105521 247.5798 81.180164 C 248.34311 80.61301 248.83142 80.181433 249.04464 79.887195 C 249.25786 79.592958 249.36495 79.313693 249.36495 79.049305 C 249.36495 78.763596 249.25786 78.521212 249.04464 78.320789 C 248.83569 78.116102 248.57149 78.014149 248.25167 78.014149 C 247.91905 78.014149 247.64653 78.117697 247.43331 78.326649 C 247.22436 78.5356 247.08393 78.905295 247.01144 79.43407 L 244.40011 79.223133 C 244.50245 78.48967 244.69165 77.917664 244.96456 77.508289 C 245.23748 77.09465 245.62029 76.778504 246.11495 76.561024 C 246.61388 76.339279 247.30291 76.228992 248.18136 76.228992 z M 261.85519 76.228992 L 264.12667 76.228992 L 264.12667 81.992664 L 265.30441 81.992664 L 265.30441 84.012195 L 264.12667 84.012195 L 264.12667 85.766102 L 261.85519 85.766102 L 261.85519 84.012195 L 257.10909 84.012195 L 257.10909 81.869617 L 261.85519 76.228992 z M 141.96651 76.389149 L 144.85714 76.389149 L 144.85714 82.113758 C 144.85714 82.625476 144.99757 83.026909 145.27901 83.316883 C 145.56472 83.602592 145.95942 83.744617 146.46261 83.744617 C 146.96153 83.744617 147.35109 83.604187 147.63253 83.322742 C 147.91824 83.037033 148.06222 82.634005 148.06222 82.113758 L 148.06222 76.389149 L 150.95284 76.389149 L 150.95284 81.978992 C 150.95284 82.533354 150.86596 83.05855 150.69112 83.553211 C 150.52055 84.043608 150.24962 84.473231 149.87862 84.844227 C 149.51189 85.210958 149.12553 85.470366 148.72042 85.619617 C 148.15753 85.828569 147.48198 85.932117 146.69308 85.932117 C 146.23679 85.932117 145.7366 85.900379 145.19503 85.836414 C 144.65773 85.772449 144.20789 85.647091 143.84542 85.459461 C 143.48295 85.267567 143.15209 84.996635 142.84933 84.646961 C 142.55082 84.297287 142.34496 83.935926 142.23409 83.56493 C 142.05499 82.967925 141.96651 82.439539 141.96651 81.978992 L 141.96651 76.389149 z M 156.48995 76.389149 L 160.30245 76.389149 L 161.77316 82.094227 L 163.238 76.389149 L 167.03683 76.389149 L 167.03683 85.766102 L 164.67159 85.766102 L 164.67159 78.613758 L 162.83566 85.766102 L 160.69308 85.766102 L 158.863 78.613758 L 158.863 85.766102 L 156.48995 85.766102 L 156.48995 76.389149 z M 172.50362 76.389149 L 176.31612 76.389149 L 177.78683 82.094227 L 179.25167 76.389149 L 183.05245 76.389149 L 183.05245 85.766102 L 180.68526 85.766102 L 180.68526 78.613758 L 178.84933 85.766102 L 176.70675 85.766102 L 174.87667 78.613758 L 174.87667 85.766102 L 172.50362 85.766102 L 172.50362 76.389149 z M 188.66573 76.389149 L 191.57003 76.389149 L 191.57003 85.766102 L 188.66573 85.766102 L 188.66573 76.389149 z M 196.64034 76.389149 L 205.44698 76.389149 L 205.44698 78.703602 L 202.49191 78.703602 L 202.49191 85.766102 L 199.59542 85.766102 L 199.59542 78.703602 L 196.64034 78.703602 L 196.64034 76.389149 z M 235.22823 77.961414 C 234.79754 77.961414 234.48653 78.182346 234.29464 78.62157 C 234.10275 79.056531 234.00753 79.864182 234.00753 81.045399 C 234.00753 82.239408 234.11108 83.055393 234.32003 83.494617 C 234.53325 83.929578 234.84106 84.146961 235.24191 84.146961 C 235.50629 84.146961 235.7336 84.054936 235.9255 83.87157 C 236.12166 83.68394 236.26564 83.389604 236.35519 82.988758 C 236.449 82.587912 236.49581 81.964311 236.49581 81.115711 C 236.49581 79.87053 236.38871 79.034331 236.1755 78.607899 C 235.96655 78.177202 235.6504 77.961414 235.22823 77.961414 z M 261.85519 79.043445 L 259.34933 81.992664 L 261.85519 81.992664 L 261.85519 79.043445 z "
     transform="translate(-2.4001083,-39.879383)" />
</svg>
